<svg width="40" height="38" viewBox="0 0 40 38" fill="none" xmlns="http://www.w3.org/2000/svg">
    <path
        d="M11.875 -0.000325521C12.4609 -0.000325521 12.9622 0.0582682 13.3789 0.175456C13.7956 0.292643 14.1732 0.448893 14.5117 0.644206C14.8503 0.839518 15.1497 1.04134 15.4102 1.24967C15.6706 1.45801 15.931 1.65983 16.1914 1.85514C16.4518 2.05046 16.7383 2.2002 17.0508 2.30436C17.3633 2.40853 17.7214 2.47363 18.125 2.49967H37.5C37.8516 2.49967 38.1771 2.56478 38.4766 2.69499C38.776 2.8252 39.0365 3.00098 39.2578 3.22233C39.4792 3.44368 39.6615 3.71061 39.8047 4.02311C39.9479 4.33561 40.013 4.66113 40 4.99967V12.4997H37.5V4.99967H18.125C17.7214 4.99967 17.3698 5.05827 17.0703 5.17546C16.7708 5.29264 16.4844 5.44889 16.2109 5.64421C15.9375 5.83952 15.6706 6.04134 15.4102 6.24967C15.1497 6.45801 14.8568 6.65983 14.5312 6.85514C14.2057 7.05046 13.8281 7.2002 13.3984 7.30436C12.9688 7.40853 12.4609 7.47363 11.875 7.49967H2.5V29.9997H5V32.4997H0V2.49967C0 2.14811 0.0651042 1.82259 0.195312 1.52311C0.325521 1.22363 0.501302 0.963216 0.722656 0.741862C0.94401 0.520508 1.21094 0.338216 1.52344 0.194987C1.83594 0.0517578 2.16146 -0.0133464 2.5 -0.000325521H11.875ZM11.875 4.99967C12.1875 4.99967 12.4609 4.97363 12.6953 4.92155C12.9297 4.86947 13.1445 4.78483 13.3398 4.66764C13.5352 4.55046 13.724 4.42025 13.9062 4.27702C14.0885 4.13379 14.2969 3.95801 14.5312 3.74967C14.3099 3.55436 14.1081 3.38509 13.9258 3.24186C13.7435 3.09863 13.5482 2.96842 13.3398 2.85124C13.1315 2.73405 12.9167 2.64941 12.6953 2.59733C12.474 2.54525 12.2005 2.5127 11.875 2.49967H2.5V4.99967H11.875ZM40 14.9997V37.4997H7.5V14.9997H40ZM37.5 17.4997H10V34.9997H37.5V17.4997ZM35 22.4997H27.5V19.9997H35V22.4997ZM32.5 27.4997H27.5V24.9997H32.5V27.4997ZM32.5 32.4997H27.5V29.9997H32.5V32.4997ZM25 32.4997H12.5V19.9997H25V32.4997ZM22.5 22.4997H15V29.9997H22.5V22.4997Z"
        fill="#CC822C" />
</svg>
    