<svg width="39" height="41" viewBox="0 0 39 41" fill="none" xmlns="http://www.w3.org/2000/svg">
    <path fill-rule="evenodd" clip-rule="evenodd"
        d="M24.8059 21.2428C24.4996 20.376 23.932 19.6255 23.1813 19.0947C22.4306 18.564 21.5338 18.279 20.6145 18.2792V17.168H18.3921V18.2792C17.2132 18.2792 16.0827 18.7475 15.2491 19.581C14.4156 20.4146 13.9473 21.5451 13.9473 22.724C13.9473 23.9028 14.4156 25.0334 15.2491 25.8669C16.0827 26.7005 17.2132 27.1688 18.3921 27.1688V31.6136C17.4253 31.6136 16.6019 30.9969 16.2952 30.1324C16.2497 29.9909 16.1763 29.8601 16.0794 29.7475C15.9824 29.6349 15.8638 29.5429 15.7307 29.477C15.5976 29.411 15.4526 29.3724 15.3042 29.3635C15.1559 29.3546 15.0073 29.3755 14.8672 29.425C14.7272 29.4745 14.5984 29.5515 14.4886 29.6517C14.3789 29.7518 14.2903 29.8729 14.2281 30.0079C14.166 30.1428 14.1315 30.2889 14.1268 30.4374C14.1221 30.5859 14.1472 30.7338 14.2006 30.8724C14.507 31.7392 15.0746 32.4897 15.8253 33.0205C16.5759 33.5512 17.4727 33.8362 18.3921 33.836V34.9472H20.6145V33.836C21.7933 33.836 22.9239 33.3677 23.7574 32.5342C24.591 31.7006 25.0593 30.57 25.0593 29.3912C25.0593 28.2124 24.591 27.0818 23.7574 26.2483C22.9239 25.4147 21.7933 24.9464 20.6145 24.9464V20.5016C21.0741 20.5015 21.5224 20.6438 21.8978 20.9091C22.2731 21.1744 22.5569 21.5495 22.7102 21.9828C22.8084 22.2607 23.0129 22.4883 23.2788 22.6154C23.4104 22.6783 23.5532 22.7147 23.6989 22.7225C23.8447 22.7303 23.9905 22.7092 24.1281 22.6606C24.2657 22.6121 24.3924 22.5368 24.5009 22.4393C24.6095 22.3417 24.6977 22.2237 24.7607 22.0921C24.8236 21.9604 24.86 21.8176 24.8678 21.6719C24.8756 21.5262 24.8545 21.3804 24.8059 21.2428ZM18.3921 20.5016C17.8027 20.5016 17.2374 20.7357 16.8206 21.1525C16.4038 21.5693 16.1697 22.1346 16.1697 22.724C16.1697 23.3134 16.4038 23.8787 16.8206 24.2955C17.2374 24.7122 17.8027 24.9464 18.3921 24.9464V20.5016ZM20.6145 31.6136C21.2039 31.6136 21.7692 31.3795 22.186 30.9627C22.6027 30.5459 22.8369 29.9806 22.8369 29.3912C22.8369 28.8018 22.6027 28.2365 22.186 27.8197C21.7692 27.4029 21.2039 27.1688 20.6145 27.1688V31.6136Z"
        fill="#CC822C" />
    <path fill-rule="evenodd" clip-rule="evenodd"
        d="M7.44965 3.41247C10.1765 2.07791 14.6503 0.5 19.5462 0.5C24.3399 0.5 28.6959 2.01235 31.4083 3.32912L31.5617 3.40358C32.3795 3.80805 33.0396 4.19031 33.504 4.50033L29.3993 10.5008C38.8623 20.175 46.1718 40.5 19.5462 40.5C-7.07934 40.5 0.0334783 20.5439 9.57872 10.5008L5.5006 4.50033C5.81507 4.29476 6.21399 4.05585 6.68959 3.8025C6.92516 3.67582 7.17852 3.54507 7.44965 3.41247ZM26.7613 10.4219L30.0471 5.6182C26.9913 5.83822 23.3554 6.55606 19.8551 7.56948C17.3549 8.29176 14.5769 8.18175 12.0045 7.70727C11.3562 7.58724 10.7124 7.44418 10.0743 7.27834L12.2078 10.4197C16.7804 12.0476 22.1875 12.0476 26.7613 10.4219ZM10.9244 12.3121C16.2748 14.3789 22.7054 14.3789 28.0558 12.3099C30.2886 14.6646 32.1568 17.34 33.5985 20.2472C35.1008 23.3119 35.9187 26.3755 35.7853 29.0157C35.6564 31.5637 34.6541 33.7405 32.3651 35.3585C29.9793 37.0442 25.9667 38.2776 19.5451 38.2776C13.1168 38.2776 9.08534 37.0653 6.67737 35.3985C4.37162 33.8017 3.35931 31.6537 3.21597 29.1402C3.06595 26.5288 3.86602 23.4808 5.36281 20.395C6.79071 17.4525 8.7831 14.6201 10.9244 12.3121ZM9.6465 4.85147C10.5355 5.11594 11.4644 5.34596 12.4067 5.52042C14.7958 5.96045 17.1916 6.0249 19.2362 5.43263C21.6188 4.73825 24.0422 4.19234 26.4923 3.79805C24.4477 3.18245 22.0564 2.72241 19.5451 2.72241C15.717 2.72241 12.1467 3.79027 9.6465 4.85147Z"
        fill="#CC822C" />
</svg>
    