<svg width="151" height="158" viewBox="0 0 151 158" fill="none" xmlns="http://www.w3.org/2000/svg">
    <path d="M15.5 150.376C11.375 150.376 7.845 148.905 4.91 145.962C1.975 143.02 0.505 139.479 0.5 135.338V30.0752C0.5 25.9398 1.97 22.401 4.91 19.4586C7.85 16.5163 11.38 15.0426 15.5 15.0376H23V0H38V15.0376H98V0H113V15.0376H120.5C124.625 15.0376 128.157 16.5113 131.097 19.4586C134.037 22.406 135.505 25.9449 135.5 30.0752V65.2255C135.5 67.3559 134.78 69.1428 133.34 70.5864C131.9 72.0301 130.12 72.7494 128 72.7443C125.88 72.7393 124.1 72.0175 122.66 70.5789C121.22 69.1403 120.5 67.3559 120.5 65.2255V60.1504H15.5V135.338H59C61.125 135.338 62.9075 136.06 64.3475 137.504C65.7875 138.947 66.505 140.732 66.5 142.857C66.495 144.982 65.775 146.769 64.34 148.218C62.905 149.667 61.125 150.386 59 150.376H15.5ZM113 157.895C102.625 157.895 93.7825 154.228 86.4725 146.895C79.1625 139.561 75.505 130.697 75.5 120.301C75.495 109.905 79.1525 101.04 86.4725 93.7067C93.7925 86.3734 102.635 82.7067 113 82.7067C123.365 82.7067 132.21 86.3734 139.535 93.7067C146.86 101.04 150.515 109.905 150.5 120.301C150.485 130.697 146.827 139.564 139.527 146.902C132.227 154.241 123.385 157.905 113 157.895ZM125.562 138.158L130.812 132.895L116.75 118.797V97.7443H109.25V121.804L125.562 138.158Z" fill="#62513E"/>
    </svg>
    