<svg width="127" height="158" viewBox="0 0 127 158" fill="none" xmlns="http://www.w3.org/2000/svg">
    <path d="M71.3942 55.2615H114.814L71.3942 11.8417V55.2615ZM16.1328 0H79.2887L126.656 47.367V142.101C126.656 146.288 124.992 150.304 122.031 153.266C119.07 156.227 115.054 157.89 110.867 157.89H16.1328C11.9452 157.89 7.92925 156.227 4.96824 153.266C2.00723 150.304 0.34375 146.288 0.34375 142.101V15.789C0.34375 7.0261 7.36985 0 16.1328 0ZM24.0273 142.101H39.8162V94.734H24.0273V142.101ZM55.6053 142.101H71.3942V78.945H55.6053V142.101ZM87.1833 142.101H102.972V110.523H87.1833V142.101Z" fill="#62513E"/>
    </svg>
    