<svg width="147" height="158" viewBox="0 0 147 158" fill="none" xmlns="http://www.w3.org/2000/svg">
    <path d="M73.4999 78.945C81.3068 78.945 88.9384 76.63 95.4297 72.2927C101.921 67.9554 106.98 61.7906 109.968 54.578C112.955 47.3653 113.737 39.4287 112.214 31.7718C110.691 24.1149 106.932 17.0816 101.411 11.5612C95.8909 6.04092 88.8575 2.28153 81.2006 0.758471C73.5437 -0.764584 65.6071 0.0171028 58.3944 3.00468C51.1818 5.99226 45.017 11.0515 40.6797 17.5428C36.3424 24.034 34.0274 31.6656 34.0274 39.4725C34.0274 49.9413 38.1861 59.9813 45.5886 67.3838C52.9912 74.7863 63.0312 78.945 73.4999 78.945ZM73.4999 90.2229C49.034 90.2229 0.193848 105.335 0.193848 135.334V157.89H146.806V135.334C146.806 105.335 97.9658 90.2229 73.4999 90.2229Z" fill="#62513E"/>
    </svg>
    